<mxfile host="app.diagrams.net" modified="2021-09-27T03:41:56.217Z" agent="5.0 (Windows NT 10.0; Win64; x64) AppleWebKit/537.36 (KHTML, like Gecko) Chrome/93.0.4577.82 Safari/537.36" etag="oubY0CKS4jsXNlgq8Jw1" version="15.2.5" type="github">
  <diagram id="AkQMKZvMQYwWtEC3dOTx" name="Page-1">
    <mxGraphModel dx="779" dy="412" grid="1" gridSize="10" guides="1" tooltips="1" connect="1" arrows="1" fold="1" page="1" pageScale="1" pageWidth="827" pageHeight="1169" math="0" shadow="0">
      <root>
        <mxCell id="0" />
        <mxCell id="1" parent="0" />
        <mxCell id="6yenNjJMddOGnztSA7gp-3" style="edgeStyle=orthogonalEdgeStyle;rounded=0;orthogonalLoop=1;jettySize=auto;html=1;" edge="1" parent="1" source="6yenNjJMddOGnztSA7gp-1" target="6yenNjJMddOGnztSA7gp-2">
          <mxGeometry relative="1" as="geometry" />
        </mxCell>
        <mxCell id="6yenNjJMddOGnztSA7gp-4" value="新建" style="edgeLabel;html=1;align=center;verticalAlign=middle;resizable=0;points=[];" vertex="1" connectable="0" parent="6yenNjJMddOGnztSA7gp-3">
          <mxGeometry x="0.3051" relative="1" as="geometry">
            <mxPoint y="-13" as="offset" />
          </mxGeometry>
        </mxCell>
        <mxCell id="6yenNjJMddOGnztSA7gp-1" value="开始" style="ellipse;whiteSpace=wrap;html=1;aspect=fixed;" vertex="1" parent="1">
          <mxGeometry x="90" y="90" width="40" height="40" as="geometry" />
        </mxCell>
        <mxCell id="6yenNjJMddOGnztSA7gp-6" value="" style="edgeStyle=orthogonalEdgeStyle;rounded=0;orthogonalLoop=1;jettySize=auto;html=1;" edge="1" parent="1" source="6yenNjJMddOGnztSA7gp-2" target="6yenNjJMddOGnztSA7gp-5">
          <mxGeometry relative="1" as="geometry" />
        </mxCell>
        <mxCell id="6yenNjJMddOGnztSA7gp-7" value="验收" style="edgeLabel;html=1;align=center;verticalAlign=middle;resizable=0;points=[];" vertex="1" connectable="0" parent="6yenNjJMddOGnztSA7gp-6">
          <mxGeometry x="-0.2545" relative="1" as="geometry">
            <mxPoint y="8" as="offset" />
          </mxGeometry>
        </mxCell>
        <mxCell id="6yenNjJMddOGnztSA7gp-2" value="广告单状态：执行中" style="rounded=1;whiteSpace=wrap;html=1;" vertex="1" parent="1">
          <mxGeometry x="50" y="180" width="120" height="30" as="geometry" />
        </mxCell>
        <mxCell id="6yenNjJMddOGnztSA7gp-9" style="edgeStyle=orthogonalEdgeStyle;rounded=0;orthogonalLoop=1;jettySize=auto;html=1;" edge="1" parent="1" source="6yenNjJMddOGnztSA7gp-5" target="6yenNjJMddOGnztSA7gp-8">
          <mxGeometry relative="1" as="geometry" />
        </mxCell>
        <mxCell id="6yenNjJMddOGnztSA7gp-11" style="edgeStyle=orthogonalEdgeStyle;rounded=0;orthogonalLoop=1;jettySize=auto;html=1;entryX=1;entryY=0.5;entryDx=0;entryDy=0;" edge="1" parent="1" source="6yenNjJMddOGnztSA7gp-5" target="6yenNjJMddOGnztSA7gp-2">
          <mxGeometry relative="1" as="geometry">
            <Array as="points">
              <mxPoint x="190" y="283" />
              <mxPoint x="190" y="195" />
            </Array>
          </mxGeometry>
        </mxCell>
        <mxCell id="6yenNjJMddOGnztSA7gp-12" value="取消验收" style="edgeLabel;html=1;align=center;verticalAlign=middle;resizable=0;points=[];" vertex="1" connectable="0" parent="6yenNjJMddOGnztSA7gp-11">
          <mxGeometry x="-0.194" y="1" relative="1" as="geometry">
            <mxPoint y="-11" as="offset" />
          </mxGeometry>
        </mxCell>
        <mxCell id="6yenNjJMddOGnztSA7gp-5" value="广告单状态：已验收" style="whiteSpace=wrap;html=1;rounded=1;" vertex="1" parent="1">
          <mxGeometry x="50" y="270" width="120" height="25" as="geometry" />
        </mxCell>
        <mxCell id="6yenNjJMddOGnztSA7gp-16" style="edgeStyle=orthogonalEdgeStyle;rounded=0;orthogonalLoop=1;jettySize=auto;html=1;entryX=0.5;entryY=0;entryDx=0;entryDy=0;" edge="1" parent="1" source="6yenNjJMddOGnztSA7gp-8" target="6yenNjJMddOGnztSA7gp-15">
          <mxGeometry relative="1" as="geometry" />
        </mxCell>
        <mxCell id="6yenNjJMddOGnztSA7gp-8" value="广告单状态：已完成" style="whiteSpace=wrap;html=1;rounded=1;" vertex="1" parent="1">
          <mxGeometry x="50" y="350" width="120" height="30" as="geometry" />
        </mxCell>
        <mxCell id="6yenNjJMddOGnztSA7gp-15" value="结束" style="ellipse;whiteSpace=wrap;html=1;aspect=fixed;" vertex="1" parent="1">
          <mxGeometry x="95" y="420" width="30" height="30" as="geometry" />
        </mxCell>
        <mxCell id="6yenNjJMddOGnztSA7gp-17" style="edgeStyle=orthogonalEdgeStyle;rounded=0;orthogonalLoop=1;jettySize=auto;html=1;" edge="1" parent="1" source="6yenNjJMddOGnztSA7gp-19" target="6yenNjJMddOGnztSA7gp-22">
          <mxGeometry relative="1" as="geometry" />
        </mxCell>
        <mxCell id="6yenNjJMddOGnztSA7gp-18" value="结算单锁定" style="edgeLabel;html=1;align=center;verticalAlign=middle;resizable=0;points=[];" vertex="1" connectable="0" parent="6yenNjJMddOGnztSA7gp-17">
          <mxGeometry x="0.3051" relative="1" as="geometry">
            <mxPoint y="-13" as="offset" />
          </mxGeometry>
        </mxCell>
        <mxCell id="6yenNjJMddOGnztSA7gp-19" value="开始" style="ellipse;whiteSpace=wrap;html=1;aspect=fixed;" vertex="1" parent="1">
          <mxGeometry x="360" y="90" width="40" height="40" as="geometry" />
        </mxCell>
        <mxCell id="6yenNjJMddOGnztSA7gp-20" value="" style="edgeStyle=orthogonalEdgeStyle;rounded=0;orthogonalLoop=1;jettySize=auto;html=1;" edge="1" parent="1" source="6yenNjJMddOGnztSA7gp-22" target="6yenNjJMddOGnztSA7gp-26">
          <mxGeometry relative="1" as="geometry" />
        </mxCell>
        <mxCell id="6yenNjJMddOGnztSA7gp-21" value="发起审批" style="edgeLabel;html=1;align=center;verticalAlign=middle;resizable=0;points=[];" vertex="1" connectable="0" parent="6yenNjJMddOGnztSA7gp-20">
          <mxGeometry x="-0.2545" relative="1" as="geometry">
            <mxPoint y="8" as="offset" />
          </mxGeometry>
        </mxCell>
        <mxCell id="6yenNjJMddOGnztSA7gp-22" value="广告结算单：草稿" style="rounded=1;whiteSpace=wrap;html=1;" vertex="1" parent="1">
          <mxGeometry x="320" y="180" width="120" height="30" as="geometry" />
        </mxCell>
        <mxCell id="6yenNjJMddOGnztSA7gp-23" style="edgeStyle=orthogonalEdgeStyle;rounded=0;orthogonalLoop=1;jettySize=auto;html=1;" edge="1" parent="1" source="6yenNjJMddOGnztSA7gp-26" target="6yenNjJMddOGnztSA7gp-28">
          <mxGeometry relative="1" as="geometry" />
        </mxCell>
        <mxCell id="6yenNjJMddOGnztSA7gp-30" value="通过" style="edgeLabel;html=1;align=center;verticalAlign=middle;resizable=0;points=[];" vertex="1" connectable="0" parent="6yenNjJMddOGnztSA7gp-23">
          <mxGeometry x="-0.275" y="-1" relative="1" as="geometry">
            <mxPoint as="offset" />
          </mxGeometry>
        </mxCell>
        <mxCell id="6yenNjJMddOGnztSA7gp-24" style="edgeStyle=orthogonalEdgeStyle;rounded=0;orthogonalLoop=1;jettySize=auto;html=1;entryX=1;entryY=0.5;entryDx=0;entryDy=0;" edge="1" parent="1" source="6yenNjJMddOGnztSA7gp-26" target="6yenNjJMddOGnztSA7gp-22">
          <mxGeometry relative="1" as="geometry">
            <Array as="points">
              <mxPoint x="460" y="283" />
              <mxPoint x="460" y="195" />
            </Array>
          </mxGeometry>
        </mxCell>
        <mxCell id="6yenNjJMddOGnztSA7gp-25" value="驳回" style="edgeLabel;html=1;align=center;verticalAlign=middle;resizable=0;points=[];" vertex="1" connectable="0" parent="6yenNjJMddOGnztSA7gp-24">
          <mxGeometry x="-0.194" y="1" relative="1" as="geometry">
            <mxPoint y="-11" as="offset" />
          </mxGeometry>
        </mxCell>
        <mxCell id="6yenNjJMddOGnztSA7gp-26" value="广告结算单：审批中" style="whiteSpace=wrap;html=1;rounded=1;" vertex="1" parent="1">
          <mxGeometry x="320" y="270" width="120" height="25" as="geometry" />
        </mxCell>
        <mxCell id="6yenNjJMddOGnztSA7gp-27" style="edgeStyle=orthogonalEdgeStyle;rounded=0;orthogonalLoop=1;jettySize=auto;html=1;entryX=0.5;entryY=0;entryDx=0;entryDy=0;" edge="1" parent="1" source="6yenNjJMddOGnztSA7gp-28" target="6yenNjJMddOGnztSA7gp-29">
          <mxGeometry relative="1" as="geometry" />
        </mxCell>
        <mxCell id="6yenNjJMddOGnztSA7gp-28" value="广告结算单：已完成" style="whiteSpace=wrap;html=1;rounded=1;" vertex="1" parent="1">
          <mxGeometry x="320" y="350" width="120" height="30" as="geometry" />
        </mxCell>
        <mxCell id="6yenNjJMddOGnztSA7gp-29" value="结束" style="ellipse;whiteSpace=wrap;html=1;aspect=fixed;" vertex="1" parent="1">
          <mxGeometry x="365" y="420" width="30" height="30" as="geometry" />
        </mxCell>
      </root>
    </mxGraphModel>
  </diagram>
</mxfile>
